# xmcd
#
# Track frame offsets:
#	150
#	20649
#	39678
#	59713
#	80090
#	98122
#	119934
#	136259
#	156716
#	167731
#	185731
#	199005
#	213130
#	232405
#	246430
#	262962
#	285804
#
# Disc length: 4149 seconds
#
# Revision: 1
# Processed by: cddbd v1.5.1PL0 Copyright (c) Steve Scherf et al.
# Submitted via: CDex 1.50Beta5
#
DISCID=0b103311
DTITLE=吉幾三 - 吉幾三全曲集
DYEAR=1900
DGENRE=Enka
TTITLE0=北・漁・港
TTITLE1=艶歌がいいね
TTITLE2=別れて北へ
TTITLE3=雪国
TTITLE4=みちのくブルース
TTITLE5=津軽平野
TTITLE6=第三向洋丸
TTITLE7=羅臼・ラウス
TTITLE8=俺はぜったいプレスリー
TTITLE9=YOI YOI YOI
TTITLE10=俺ら東京さ行ぐだ
TTITLE11=酒もってこい
TTITLE12=横浜ものがたり
TTITLE13=故郷
TTITLE14=薄化粧
TTITLE15=釜山
TTITLE16=と・も・子
EXTD=
EXTT0=
EXTT1=
EXTT2=
EXTT3=
EXTT4=
EXTT5=
EXTT6=
EXTT7=
EXTT8=
EXTT9=
EXTT10=
EXTT11=
EXTT12=
EXTT13=
EXTT14=
EXTT15=
EXTT16=
PLAYORDER=
